<mxfile host="Electron" modified="2023-06-15T01:21:31.361Z" agent="Mozilla/5.0 (Windows NT 10.0; Win64; x64) AppleWebKit/537.36 (KHTML, like Gecko) draw.io/21.4.0 Chrome/112.0.5615.204 Electron/24.5.1 Safari/537.36" etag="DZNhr3uw7bYl-UHTcEnb" version="21.4.0" type="device">
  <diagram id="C5RBs43oDa-KdzZeNtuy" name="Page-1">
    <mxGraphModel dx="1050" dy="629" grid="0" gridSize="10" guides="1" tooltips="1" connect="1" arrows="1" fold="1" page="1" pageScale="1" pageWidth="827" pageHeight="1169" math="0" shadow="0">
      <root>
        <mxCell id="WIyWlLk6GJQsqaUBKTNV-0" />
        <mxCell id="WIyWlLk6GJQsqaUBKTNV-1" parent="WIyWlLk6GJQsqaUBKTNV-0" />
        <mxCell id="zkfFHV4jXpPFQw0GAbJ--0" value="Board (create the board to play )" style="swimlane;fontStyle=2;align=center;verticalAlign=top;childLayout=stackLayout;horizontal=1;startSize=26;horizontalStack=0;resizeParent=1;resizeLast=0;collapsible=1;marginBottom=0;rounded=0;shadow=0;strokeWidth=1;" parent="WIyWlLk6GJQsqaUBKTNV-1" vertex="1">
          <mxGeometry x="220" y="120" width="432" height="434" as="geometry">
            <mxRectangle x="230" y="140" width="160" height="26" as="alternateBounds" />
          </mxGeometry>
        </mxCell>
        <mxCell id="zkfFHV4jXpPFQw0GAbJ--1" value="COORDINATE_COLOR ( set the collor for the board)&#xa;WIDTH (set the width of the board)&#xa;HEIGHT (set the height of the board)&#xa;ALPHABET (set the array of all character for the board)&#xa;innerBoard (JPanel inside the board)&#xa;Coordinate (row/column)&#xa;dimension (size of the board)&#xa;ships (array of ships)&#xa;hoverRow (row number)&#xa;hoverCol (column number)&#xa;hoverActive (true/false)&#xa;originalColors (original color)&#xa;grogressBar (timing)&#xa;progressLabel (label)&#xa;" style="text;align=left;verticalAlign=top;spacingLeft=4;spacingRight=4;overflow=hidden;rotatable=0;points=[[0,0.5],[1,0.5]];portConstraint=eastwest;" parent="zkfFHV4jXpPFQw0GAbJ--0" vertex="1">
          <mxGeometry y="26" width="432" height="211" as="geometry" />
        </mxCell>
        <mxCell id="zkfFHV4jXpPFQw0GAbJ--4" value="" style="line;html=1;strokeWidth=1;align=left;verticalAlign=middle;spacingTop=-1;spacingLeft=3;spacingRight=3;rotatable=0;labelPosition=right;points=[];portConstraint=eastwest;" parent="zkfFHV4jXpPFQw0GAbJ--0" vertex="1">
          <mxGeometry y="237" width="432" height="8" as="geometry" />
        </mxCell>
        <mxCell id="zkfFHV4jXpPFQw0GAbJ--5" value="Board(int, Color[]) : Construct a new Board&#xa;addAlphabetCoordinateLabel(int, int, Color) :  add alphabet  to the board panel&#xa;addNumericCoordinateLabel(int,int,Color) : add numeric to the board panel&#xa;addCoordinateButton(int, int, int) : add button to the board panel&#xa;updateButtonColors() : update button color base on hover state&#xa;isSuitableForShip(int,int,int) : true/false the buttons suitable for the ship&#xa;paintPermanent(Coordinate, boolean) :paint the button when click on&#xa;placeShip(int, int) : place a ship to the board&#xa;removeShip (int, int) : remove a ship from the board&#xa;generateShip() : generate ships for the board.&#xa;randomizeShip() : Randomly places ships on the board&#xa;designMode() : enter design mode." style="text;align=left;verticalAlign=top;spacingLeft=4;spacingRight=4;overflow=hidden;rotatable=0;points=[[0,0.5],[1,0.5]];portConstraint=eastwest;" parent="zkfFHV4jXpPFQw0GAbJ--0" vertex="1">
          <mxGeometry y="245" width="432" height="189" as="geometry" />
        </mxCell>
      </root>
    </mxGraphModel>
  </diagram>
</mxfile>
